P3
# CREATOR: GIMP PNM Filter Version 1.1
100 10
255
183 187 199  182 186 198  178 182 194  187 191 203  190 194 206  185 189 201  182 186 198  182 186 198  191 195 207  188 192 204  185 189 201  187 191 203  192 196 208  188 192 204  185 189 201  186 190 202  181 184 199  183 186 201  187 190 205  189 192 207  189 192 207  189 192 207  191 196 210  191 197 211  196 202 216  195 201 216  195 201 217  195 200 216  196 202 218  195 198 213  199 202 217  199 202 216  196 199 216  191 194 211  191 194 211  191 194 211  190 193 210  193 196 213  195 198 213  195 198 214  193 196 218  191 193 214  192 195 210  196 199 214  200 203 218  204 207 222  198 201 216  192 195 210  194 197 212  192 195 210  195 198 214  199 201 214  202 206 219  194 201 216  196 201 216  207 210 225  208 211 226  201 204 219  202 205 220  204 207 222  206 209 224  205 208 224  205 208 224  200 203 222  207 210 227  209 212 229  211 214 231  208 211 226  206 209 225  209 212 229  204 207 226  210 214 225  217 221 233  211 214 232  201 204 221  201 204 221  200 203 220  199 202 219  206 209 226  210 213 230  208 211 228  209 212 229  209 212 229  206 209 224  213 216 231  215 218 232  217 221 239  210 215 234  203 208 227  210 215 233  207 213 229  208 214 230  210 216 231  211 216 231  217 221 244  210 216 229  196 200 212  194 197 212  205 208 225  203 208 224  
184 188 200  189 193 205  181 185 197  179 183 195  186 190 202  184 188 200  186 190 202  184 188 200  188 192 204  193 197 209  185 189 201  184 188 200  189 193 205  187 191 203  189 193 205  186 190 202  186 189 204  194 197 212  188 191 206  186 189 204  191 194 209  196 199 214  194 197 211  196 199 212  193 196 209  195 198 212  199 202 217  199 202 217  201 203 219  193 196 211  192 195 210  201 204 219  195 198 215  193 196 213  194 197 214  194 197 214  190 193 210  189 192 209  196 199 215  196 199 216  199 202 219  203 206 222  202 205 220  199 202 217  200 203 218  204 207 222  204 207 222  194 197 212  198 201 216  199 202 217  202 205 220  202 204 217  207 210 224  199 206 221  197 202 217  199 202 217  200 203 218  199 202 217  197 200 215  198 201 216  199 202 217  197 200 215  202 205 222  206 209 228  205 208 225  206 209 226  203 206 223  205 208 223  199 202 218  201 204 222  204 207 226  203 207 220  208 212 225  212 215 233  207 210 227  207 210 227  210 213 230  207 210 227  198 201 218  199 202 219  200 203 220  204 207 224  207 210 227  201 204 219  201 204 219  206 210 224  215 218 234  217 220 236  210 212 229  212 214 231  218 220 236  215 218 233  209 211 226  208 209 223  182 184 195  130 131 138  96 99 100  93 96 99  120 122 127  134 138 150  
185 189 201  187 191 203  181 185 198  179 183 195  180 184 196  182 186 198  183 187 199  183 187 199  188 192 204  193 197 209  187 191 203  184 188 200  189 193 205  183 187 199  185 189 201  187 191 202  187 190 205  193 196 211  189 192 208  188 191 207  190 193 209  196 199 214  191 192 205  191 191 203  188 189 201  190 190 203  193 192 206  190 190 204  199 199 213  196 200 215  195 198 213  195 198 213  194 197 214  200 203 220  203 206 224  197 200 217  192 195 212  191 194 211  197 200 218  196 198 215  191 195 206  193 196 208  202 205 220  200 203 219  198 201 216  198 201 216  199 202 217  198 201 216  198 201 216  203 206 221  196 199 214  200 202 215  205 209 223  201 208 224  200 204 220  199 202 218  200 203 218  203 206 221  205 208 223  214 217 232  204 207 222  204 207 222  203 206 223  202 205 225  200 203 221  204 207 225  207 210 227  209 212 228  208 211 228  212 215 233  205 208 228  199 203 215  199 203 215  210 213 231  202 205 222  198 201 218  200 203 220  206 209 226  215 218 235  211 214 232  207 210 227  202 205 222  205 207 225  210 213 229  206 209 224  207 210 225  214 215 231  212 211 227  211 210 227  209 209 225  204 204 217  206 206 220  214 214 228  190 187 201  83 83 81  20 19 17  12 13 13  12 13 15  16 17 21  24 27 27  
184 188 199  185 189 200  185 189 200  186 191 202  185 189 201  184 188 200  180 184 196  181 185 197  186 190 202  188 191 204  189 191 204  187 190 203  189 191 204  186 189 204  194 196 211  194 196 211  186 190 202  186 190 202  189 193 205  192 194 207  188 190 203  189 191 204  184 188 200  184 187 199  190 193 205  188 191 204  188 192 204  187 191 203  191 194 207  201 203 218  201 203 218  196 198 213  192 195 208  201 203 217  205 207 221  200 203 218  192 195 210  190 193 208  196 201 216  192 198 214  196 202 217  188 194 208  194 197 210  198 202 214  190 194 206  192 195 210  196 199 214  198 201 217  195 199 211  198 202 214  193 197 209  199 201 214  205 207 220  202 205 218  209 211 224  212 214 227  208 211 224  196 199 212  198 201 216  201 204 219  205 208 223  205 207 221  208 211 224  204 206 220  213 215 228  212 214 227  214 216 230  213 215 228  207 209 223  217 219 232  214 216 229  203 205 219  197 199 215  200 203 221  198 205 223  208 212 229  212 214 229  203 206 221  211 214 229  216 219 234  220 222 238  212 216 231  205 211 226  210 213 225  214 216 228  203 205 217  208 211 225  206 209 224  204 207 222  207 209 224  210 209 223  214 213 227  217 216 229  141 139 143  22 24 17  11 12 13  13 13 15  13 13 15  13 13 15  13 13 15  
181 185 196  186 190 201  186 190 201  189 191 204  189 191 204  191 192 205  187 190 203  180 184 196  185 189 201  190 193 206  189 190 204  193 195 208  192 194 207  188 190 204  194 196 209  199 201 215  191 192 205  183 185 198  192 193 206  197 199 212  191 193 206  188 190 203  188 192 204  188 192 204  194 198 210  191 195 207  188 192 204  187 191 203  188 192 204  201 202 216  200 202 215  202 204 218  194 196 209  195 197 210  200 202 215  199 202 217  190 193 208  197 200 215  205 208 224  204 207 223  204 207 223  197 200 214  198 202 214  202 206 218  194 198 210  191 194 209  193 196 211  194 197 212  189 193 205  190 194 206  194 198 210  207 209 222  213 215 228  200 202 215  195 197 210  198 200 213  204 206 219  201 203 217  193 196 211  191 194 209  196 199 214  199 201 214  210 212 225  209 211 225  208 209 222  210 211 223  209 210 223  215 217 230  211 213 226  210 212 225  217 219 232  217 219 233  209 210 227  202 205 223  201 207 223  210 213 228  224 226 239  210 212 226  211 213 227  214 216 230  219 217 232  217 218 232  206 210 224  201 203 216  203 205 217  198 200 213  203 205 218  210 211 225  210 212 226  215 215 229  216 215 229  221 220 234  204 202 215  84 82 81  8 8 6  7 8 9  14 14 16  14 14 16  14 14 16  14 14 16  
178 182 193  184 188 199  187 192 203  189 188 202  185 184 198  192 190 205  194 196 209  185 189 201  178 183 195  183 187 199  183 185 198  186 188 201  190 192 205  186 188 201  187 189 201  192 194 206  195 193 208  190 188 203  191 189 203  190 192 205  188 190 203  191 193 206  196 200 212  195 199 211  199 204 216  193 198 210  193 197 209  194 198 210  192 196 208  195 196 209  196 198 210  194 196 208  199 201 214  195 197 210  198 200 213  199 202 217  193 196 211  192 196 211  200 201 215  206 206 220  204 204 218  197 199 213  197 201 213  201 205 217  195 199 212  193 196 211  201 204 219  199 202 217  197 202 213  196 201 213  197 201 213  202 205 218  214 217 230  205 207 220  195 197 210  193 195 208  201 203 216  209 211 225  206 210 225  201 205 220  201 204 219  202 204 217  206 208 221  211 213 226  206 204 215  204 202 213  208 206 217  210 212 225  211 213 226  203 205 218  208 210 223  221 223 237  219 220 237  214 216 234  212 215 230  211 212 225  217 216 228  220 220 232  213 212 225  213 213 225  208 206 219  221 221 233  212 214 226  207 210 224  206 208 222  205 207 221  213 213 227  217 216 228  213 213 225  217 216 229  202 201 215  207 205 220  189 188 200  54 54 46  10 10 14  10 11 14  14 14 16  14 14 16  14 14 16  14 14 16  
185 189 200  184 187 198  190 192 203  190 191 203  185 186 199  184 185 198  187 189 202  187 190 202  178 180 193  178 181 194  181 183 196  182 184 197  187 189 202  187 189 201  184 186 198  186 188 200  192 193 207  192 193 207  188 189 203  192 194 207  191 193 206  189 191 204  192 194 206  192 193 205  197 199 211  195 197 209  191 194 206  194 197 210  194 196 209  193 195 207  192 194 207  188 190 203  193 195 208  197 199 212  197 199 212  198 200 215  195 197 212  192 195 210  191 192 206  195 195 209  202 203 216  201 202 215  194 196 209  196 199 211  195 198 210  193 195 209  200 202 216  200 202 216  200 202 215  199 202 214  203 206 219  199 198 210  204 204 215  203 205 218  202 205 218  204 206 219  200 202 215  201 202 216  211 211 225  213 213 228  211 211 225  210 210 222  209 210 222  208 209 221  212 211 223  203 203 214  206 205 217  212 214 227  209 211 224  205 207 220  199 200 213  208 208 222  212 212 227  214 213 228  213 212 226  206 205 218  205 203 217  205 206 220  203 204 218  209 211 225  207 208 220  218 219 232  218 220 233  209 211 225  213 215 229  212 214 228  211 212 225  210 211 224  206 207 220  215 215 230  208 209 225  206 209 221  170 168 181  30 31 22  13 12 18  15 15 21  17 17 18  15 15 17  16 16 18  14 14 16  
183 187 198  186 187 199  189 189 201  188 190 202  186 188 200  183 185 197  179 181 194  184 186 199  188 190 203  183 185 198  186 188 201  183 185 198  186 188 201  188 190 202  186 188 200  189 191 203  194 196 209  199 200 213  196 197 210  198 200 213  194 196 209  189 191 204  186 187 199  185 185 197  194 194 206  201 202 214  191 193 206  189 191 204  188 190 203  190 192 205  196 198 211  192 194 207  193 195 208  189 191 204  186 188 201  194 196 211  201 203 217  202 204 218  202 204 217  191 193 206  191 193 206  198 200 213  193 195 208  196 198 211  203 205 218  197 199 212  195 197 210  194 196 209  200 202 215  196 198 211  204 206 219  211 210 221  204 204 215  197 198 211  194 196 209  204 206 219  207 209 222  201 202 216  204 203 217  207 206 220  204 203 217  204 204 216  207 207 219  202 202 214  201 199 212  201 200 213  198 197 210  203 205 218  210 212 225  215 217 230  205 205 219  199 198 212  206 205 219  206 205 219  209 207 221  209 207 221  202 202 216  207 209 224  205 207 222  206 208 223  207 209 222  210 212 225  216 218 231  210 212 225  218 220 233  217 219 232  205 207 220  213 215 228  212 214 227  215 216 230  213 215 231  200 205 217  145 144 156  12 13 8  15 14 22  16 15 21  14 14 16  16 16 18  16 16 18  15 15 17  
177 181 192  182 184 196  185 185 197  189 191 203  189 191 203  187 189 201  182 184 197  182 184 197  191 193 206  192 194 207  192 194 207  184 186 199  188 190 203  193 195 207  189 191 203  190 192 204  194 193 205  195 194 205  194 192 204  193 195 208  194 196 209  192 195 208  189 190 202  191 191 203  196 196 208  200 200 213  197 199 212  192 194 207  190 192 205  192 194 207  198 200 213  194 196 209  191 193 206  194 196 209  194 196 209  189 191 203  196 198 210  202 204 216  207 209 222  199 201 214  192 194 207  196 198 211  196 198 211  200 202 215  199 201 214  196 198 211  203 205 218  203 205 218  202 204 217  200 202 215  198 200 213  206 204 215  215 214 225  200 201 214  197 199 212  204 206 219  211 213 226  201 202 215  198 197 211  207 206 220  206 205 219  204 204 216  206 206 218  209 209 221  202 204 219  195 198 212  198 200 215  198 200 213  204 206 219  212 214 227  218 218 231  208 207 221  209 208 222  214 214 228  206 207 221  209 209 223  212 212 226  216 218 233  218 220 235  210 212 227  203 205 218  201 203 216  205 207 220  208 210 223  211 213 226  214 216 229  207 209 222  205 207 220  204 206 219  209 210 221  215 217 233  202 206 223  119 119 123  8 8 8  17 16 22  17 17 16  19 20 22  16 16 18  16 16 18  15 15 17  
181 184 195  180 181 193  180 181 193  184 186 198  193 195 207  189 191 203  184 185 198  181 182 195  186 187 200  189 190 203  195 196 209  189 191 203  185 186 199  190 191 203  188 190 202  193 194 206  196 195 205  190 189 200  188 186 198  191 192 204  193 194 207  191 192 205  190 190 202  191 191 203  191 191 203  193 193 205  195 197 209  197 198 210  196 198 210  193 194 207  195 196 209  199 200 213  194 195 208  198 199 213  204 205 219  199 200 213  194 195 208  194 195 208  202 203 217  205 206 219  196 197 210  196 197 210  198 200 213  195 197 210  195 197 210  198 199 212  204 205 218  206 208 220  204 205 218  202 203 216  201 202 215  198 197 210  202 202 215  202 204 217  197 199 212  199 201 214  212 214 227  208 209 223  207 206 220  211 210 223  209 208 221  209 209 221  204 204 216  210 210 222  212 214 228  199 201 216  202 205 220  203 205 219  205 207 220  205 207 220  206 207 221  211 211 225  203 203 217  210 211 224  206 209 221  199 202 215  201 204 217  213 215 229  220 222 237  212 214 228  206 209 223  204 206 220  204 206 220  209 211 224  204 206 219  203 205 218  204 206 220  203 205 219  210 212 225  207 209 221  207 209 225  205 208 222  85 86 83  9 8 11  13 12 16  48 47 44  79 77 77  60 58 57  47 45 44  36 35 36  
