P3
# CREATOR: GIMP PNM Filter Version 1.1
1 85
255
190 190 202  
188 188 200  
187 187 199  
189 189 201  
196 196 208  
199 199 211  
189 189 201  
183 183 195  
189 189 201  
195 195 207  
192 192 204  
187 187 199  
193 192 205  
189 189 201  
186 186 198  
193 191 203  
187 185 196  
185 183 194  
194 192 203  
196 194 205  
191 189 200  
188 186 197  
191 189 201  
191 189 201  
191 189 201  
190 188 200  
187 185 196  
190 188 199  
188 186 197  
196 194 205  
198 196 207  
191 189 200  
189 187 198  
196 194 205  
187 185 196  
179 176 186  
181 179 191  
185 185 197  
192 190 201  
189 187 198  
184 182 193  
187 185 196  
184 182 193  
185 183 194  
189 187 196  
190 189 197  
181 180 188  
187 186 195  
188 186 197  
181 179 190  
184 183 194  
187 186 198  
189 187 196  
164 160 167  
115 78 59  
92 38 8  
99 48 17  
91 39 9  
101 50 19  
96 44 12  
82 32 5  
91 41 10  
104 53 16  
110 58 18  
112 60 22  
115 63 24  
108 56 17  
110 58 21  
112 60 22  
111 59 21  
111 59 19  
117 65 25  
110 58 19  
133 81 42  
120 68 28  
129 78 34  
125 73 32  
117 65 25  
128 76 36  
120 68 29  
116 64 24  
119 67 28  
127 77 37  
110 62 28  
99 49 17  
