P2
# CREATOR: GIMP PNM Filter Version 1.1
100 50
255
52 60 36 9 13 81 90 101 108 122 147 175 210 210 208 213 227 223 222 228 215 217 221 220 217 218 218 225 219 227 220 212 206 213 215 210 221 212 215 211 212 226 218 218 215 202 205 230 232 227 216 226 216 221 230 220 217 208 206 217 228 220 220 222 227 226 217 217 220 220 219 214 214 217 223 219 208 214 215 214 210 205 206 214 223 213 210 220 212 210 216 219 211 211 212 215 216 213 210 218 
172 167 109 11 12 96 89 93 92 84 83 66 180 219 212 217 218 223 219 208 218 229 228 215 206 217 219 219 227 224 214 216 219 228 229 224 227 229 219 222 227 214 211 214 216 227 227 225 216 209 215 223 221 231 224 213 215 213 214 215 216 215 215 218 208 202 206 209 217 218 216 216 217 219 220 207 203 210 221 222 216 212 216 216 215 209 208 216 207 212 219 214 197 199 209 208 205 203 190 168 
220 219 164 17 19 207 211 216 202 196 186 195 215 223 228 217 208 205 212 219 226 228 219 216 227 225 220 221 203 206 203 220 224 225 219 226 220 206 210 215 207 211 216 210 212 221 224 218 212 209 214 209 212 199 205 222 221 213 224 227 223 210 208 211 209 212 204 203 213 214 212 221 223 222 210 207 209 213 214 216 217 215 209 208 217 213 210 217 204 208 207 196 174 140 130 107 87 70 54 36 
206 218 161 14 19 211 219 214 213 221 233 235 229 226 219 229 228 211 214 226 224 213 195 218 231 221 210 207 208 215 215 209 208 205 209 215 206 205 216 231 224 228 222 218 215 220 201 197 204 210 213 210 211 211 218 218 215 215 212 219 217 205 211 213 210 211 212 218 223 214 220 223 207 204 205 209 213 216 217 217 210 203 198 187 172 135 154 156 127 109 79 55 36 26 22 20 18 15 14 14 
215 229 156 12 20 226 224 206 196 207 218 213 208 202 206 204 200 218 216 223 206 199 212 214 207 213 217 214 218 225 223 203 211 212 204 205 212 212 224 226 212 217 218 218 210 200 199 213 206 212 220 229 227 221 207 197 202 214 218 216 207 209 213 221 222 224 218 223 210 207 208 204 196 198 209 215 219 206 196 187 171 96 52 28 15 15 25 20 13 10 11 12 15 16 15 14 14 13 14 15 
208 214 139 13 27 228 210 217 210 200 200 208 213 218 212 205 213 218 216 209 209 220 216 221 209 212 216 214 220 216 210 212 217 219 215 214 212 214 218 212 202 204 206 217 211 210 214 210 214 226 228 220 212 216 217 202 206 221 218 215 208 211 206 209 215 215 215 214 205 211 201 191 192 184 167 163 137 112 85 67 45 18 17 18 19 16 13 15 15 11 12 14 16 15 16 16 15 15 15 14 
214 219 125 11 46 238 208 210 224 224 213 203 195 208 215 221 227 223 212 209 206 207 214 216 226 219 214 209 209 208 201 204 214 211 209 208 206 218 226 212 207 208 216 208 209 216 228 227 217 212 202 199 198 200 207 215 208 206 205 223 211 204 211 221 208 204 201 181 164 144 121 95 80 60 45 33 23 17 15 14 14 16 15 14 16 15 14 14 14 13 14 15 16 15 15 15 15 15 15 15 
197 213 100 6 74 235 209 221 215 218 212 214 209 212 207 222 221 216 214 217 218 218 212 218 212 205 209 223 228 219 215 214 211 219 219 212 216 229 216 210 209 212 216 206 210 221 220 222 208 210 211 226 221 212 199 210 207 207 212 207 205 203 195 155 121 81 63 46 33 24 23 22 19 18 15 14 15 16 16 17 17 17 15 16 17 16 15 15 14 14 15 16 16 16 16 16 16 16 16 16 
197 210 81 1 99 220 216 210 210 207 214 214 210 223 221 210 214 206 219 226 231 211 211 209 204 212 212 218 207 207 214 208 221 225 221 227 217 207 201 195 222 224 221 208 210 215 209 196 202 197 217 215 201 199 201 179 181 169 135 95 75 50 30 19 13 14 17 19 15 16 15 16 15 16 14 12 13 18 16 16 17 17 17 17 17 17 15 16 15 16 17 16 16 16 16 16 16 16 16 16 
207 189 61 0 145 215 216 215 204 207 218 208 210 216 207 211 203 205 206 204 207 208 214 208 221 215 216 218 216 217 208 212 206 192 199 207 210 208 206 204 203 210 209 211 210 207 199 198 204 197 176 149 121 110 86 56 36 20 11 11 13 14 15 14 16 16 14 14 14 13 14 15 14 16 16 9 12 15 15 16 16 10 8 11 17 17 16 16 16 16 16 16 16 15 15 14 13 11 15 26 
183 172 47 2 192 214 210 204 214 213 219 211 213 203 203 207 203 209 210 215 196 213 210 212 214 207 204 201 204 200 204 218 214 213 210 209 198 205 211 201 178 150 127 101 79 119 116 88 72 57 40 30 17 13 13 12 13 13 13 14 16 17 16 15 15 14 14 14 14 14 14 14 15 16 16 15 16 16 16 18 17 5 5 5 14 18 17 16 15 17 14 11 9 8 22 41 60 77 91 98 
197 165 27 4 211 216 216 210 204 214 211 217 227 210 209 210 207 205 210 221 210 224 221 209 202 195 203 203 208 203 211 210 214 221 224 205 202 204 203 84 26 20 23 26 22 22 22 18 19 16 15 13 16 11 15 14 14 14 15 15 15 16 16 15 15 14 14 14 14 14 14 14 15 16 16 16 15 17 18 18 19 18 17 15 19 17 15 14 13 16 38 60 86 107 116 117 116 121 121 121 
200 146 5 44 209 205 199 199 212 210 219 211 205 209 218 218 207 211 219 207 206 213 215 227 217 214 208 219 211 202 204 197 183 165 136 93 65 37 24 20 23 22 19 17 16 14 15 13 19 15 15 16 14 10 15 15 14 14 14 15 14 16 16 15 15 14 14 14 14 14 14 14 15 16 16 17 17 17 18 19 18 19 22 26 27 37 61 85 105 126 126 124 122 121 121 121 120 121 121 120 
198 117 0 108 219 205 211 223 204 210 209 203 198 205 212 217 211 218 219 223 213 208 210 207 189 176 164 158 120 97 65 52 33 17 15 13 16 17 18 17 18 17 17 16 16 15 15 14 13 14 15 13 12 9 16 16 15 15 15 14 15 16 17 16 16 15 15 14 16 14 15 15 16 15 14 12 14 22 32 45 56 69 84 103 120 129 129 125 125 123 123 121 122 121 121 121 121 122 121 121 
190 75 0 179 214 194 192 201 212 217 201 204 206 209 221 200 204 214 199 172 159 144 108 83 64 48 35 22 15 13 14 15 17 18 18 18 17 18 19 18 19 18 18 18 18 15 15 16 16 15 14 15 15 14 16 16 14 14 14 13 14 17 18 18 17 16 15 16 14 11 11 9 13 32 52 70 88 98 104 113 123 127 124 124 123 122 123 123 123 123 123 122 123 122 122 122 122 122 121 121 
194 26 7 201 204 207 209 219 201 196 202 203 201 207 206 210 220 164 74 45 26 23 21 15 16 14 14 15 16 17 15 17 18 18 19 19 17 18 20 19 19 19 18 17 16 15 11 7 7 11 13 17 14 15 16 15 14 14 14 15 15 15 17 17 15 14 13 10 27 51 74 99 120 118 120 121 122 123 125 123 122 122 121 125 121 122 123 124 123 123 123 122 123 123 122 122 122 122 121 121 
198 0 57 203 204 220 206 194 207 214 207 221 209 212 223 206 183 44 43 25 18 15 14 15 15 17 16 17 17 17 17 17 17 19 19 19 19 19 19 19 18 18 18 19 20 15 8 4 4 5 12 14 16 15 15 13 13 13 14 13 17 20 25 29 48 72 96 120 127 126 125 124 123 122 123 123 123 123 122 122 122 122 123 123 123 123 123 123 123 123 123 122 122 122 121 120 122 122 122 121 
146 0 109 203 211 213 204 210 222 215 204 218 200 206 207 210 85 40 59 21 14 10 15 13 16 17 17 18 18 18 17 17 17 19 19 19 19 18 18 18 19 19 19 19 18 17 15 16 14 11 14 14 13 12 9 14 25 34 46 59 77 95 113 128 129 126 125 123 123 122 121 127 123 122 123 122 122 122 122 122 122 122 123 123 123 123 123 123 123 123 123 122 122 122 121 120 122 124 122 123 
85 0 142 203 196 199 205 218 209 200 203 211 202 211 206 213 49 39 56 18 11 9 16 16 16 18 17 17 17 17 17 17 17 19 19 19 19 19 19 19 19 19 19 20 18 19 16 14 11 8 6 22 41 62 81 95 104 114 121 127 126 125 124 125 123 123 123 123 122 123 123 125 123 122 123 123 123 123 123 123 123 123 123 123 123 123 123 123 123 123 123 122 122 122 124 123 132 131 127 124 
35 17 158 203 208 199 203 214 205 194 204 197 223 224 209 188 17 19 39 18 7 9 17 19 17 17 17 18 18 18 17 18 19 19 18 18 18 18 17 17 19 20 19 18 17 16 18 38 61 86 110 119 122 122 124 125 123 123 123 124 124 124 124 122 121 121 123 124 121 123 123 126 123 123 122 123 122 122 124 123 122 122 121 122 122 122 122 123 120 122 121 122 127 126 126 136 131 122 122 122 
3 40 180 207 201 205 202 197 201 215 206 206 207 199 194 219 6 10 31 19 18 17 17 17 18 18 18 17 17 17 17 18 18 19 20 18 19 19 21 26 24 27 39 60 83 106 126 126 128 123 123 123 123 123 124 125 123 123 123 124 124 124 123 123 122 121 122 123 121 123 123 125 123 123 122 123 122 122 124 123 122 122 122 122 123 123 122 123 120 123 121 130 135 133 127 121 121 122 122 122 
3 68 211 209 206 207 211 218 208 201 198 198 200 192 191 212 34 11 32 21 18 19 18 18 18 18 18 17 17 17 17 16 14 13 23 33 44 57 70 87 101 121 130 126 126 123 123 124 123 123 123 124 123 123 124 125 123 123 123 124 124 124 123 122 123 123 123 123 124 125 127 126 123 123 122 122 123 123 123 123 122 123 122 123 124 123 121 121 126 130 129 129 127 120 121 121 121 121 122 122 
7 101 225 208 210 206 214 209 200 202 211 210 204 198 200 209 83 3 29 23 17 19 17 15 16 16 15 12 8 12 30 50 72 91 101 109 117 124 127 126 126 124 124 124 123 123 123 122 123 123 123 123 123 124 124 125 126 125 125 124 125 124 124 122 125 123 124 125 124 126 128 126 122 122 120 122 122 122 129 124 122 123 124 122 123 122 129 129 130 133 124 122 122 123 122 122 122 121 122 122 
12 127 194 201 210 194 179 181 200 211 213 215 207 188 202 206 118 0 23 27 17 17 13 13 9 23 49 75 101 118 121 123 122 126 124 124 124 123 123 123 124 124 124 123 124 124 123 124 124 124 124 124 124 124 125 125 126 125 125 126 125 127 123 128 123 125 127 128 128 137 133 124 121 124 123 122 125 127 131 123 124 123 123 123 122 130 129 145 125 122 124 123 123 123 122 122 122 121 122 122 
18 184 190 190 188 199 200 203 197 196 200 207 185 199 196 192 170 0 19 29 19 15 34 93 120 131 130 125 125 125 125 126 124 123 124 124 124 123 123 123 124 124 124 124 125 125 124 124 124 124 124 124 124 125 125 126 126 125 125 124 126 129 127 141 150 142 146 149 134 143 139 133 132 126 128 127 128 134 124 123 124 122 123 128 138 138 134 120 123 121 121 123 123 123 122 122 122 121 122 122 
37 211 200 194 217 212 204 201 196 190 191 188 199 216 204 203 202 12 13 35 18 15 30 121 125 124 125 124 124 124 123 123 124 125 125 125 125 124 124 124 124 124 124 125 124 125 125 125 125 124 125 125 125 126 125 125 126 125 125 123 130 139 145 147 179 184 180 194 195 185 177 168 172 164 149 141 146 136 123 122 122 124 130 144 134 131 122 120 123 122 122 124 126 123 122 122 122 120 119 119 
106 192 183 202 200 202 202 205 197 203 197 190 206 213 200 208 186 42 5 36 21 18 13 114 125 125 124 125 125 125 124 124 124 124 125 125 124 124 125 125 125 124 124 125 125 125 125 125 125 124 125 125 125 126 125 124 123 125 126 134 142 158 179 171 185 189 202 211 200 201 204 217 212 205 196 185 169 136 127 129 126 135 145 136 122 125 126 125 126 127 127 128 123 121 120 118 126 136 141 139 
191 191 193 207 199 199 203 208 200 202 192 196 203 205 200 201 198 78 0 33 22 18 10 99 126 125 124 124 124 124 124 124 124 124 125 125 124 124 125 125 123 124 126 125 125 125 125 125 125 124 125 125 125 126 126 126 132 138 143 154 167 180 178 181 203 223 221 210 187 202 201 214 224 224 225 223 208 189 167 153 160 166 134 128 127 124 125 132 134 127 124 118 121 136 144 146 137 124 123 125 
186 189 193 190 175 181 192 195 206 202 195 195 190 182 188 202 205 115 0 26 24 17 13 76 127 125 124 124 124 124 124 125 125 125 125 125 124 124 125 125 127 127 126 124 124 124 124 125 124 124 125 125 126 126 126 129 138 151 173 190 185 198 195 225 241 242 236 194 196 202 214 214 218 227 234 223 216 228 229 220 204 166 152 133 127 129 130 130 126 123 139 144 141 129 120 119 122 122 121 121 
183 200 202 191 198 195 196 201 193 195 199 199 204 197 191 191 182 128 4 17 31 18 15 55 130 126 126 124 125 125 125 125 125 125 124 124 124 125 124 124 123 127 129 128 125 124 124 125 124 124 126 124 128 130 136 145 168 190 186 186 187 177 196 235 249 246 237 226 217 219 214 221 216 219 232 227 237 248 251 247 237 219 179 149 144 136 140 143 143 137 120 117 119 118 120 121 121 121 122 122 
204 208 211 195 210 208 196 194 192 194 201 219 210 199 189 178 183 151 21 8 38 17 18 32 133 126 126 125 126 125 125 125 125 125 125 125 125 125 124 124 124 123 124 128 131 130 126 123 125 125 125 126 128 139 164 183 190 195 193 193 178 154 186 239 250 235 231 233 232 236 240 237 217 216 236 242 245 233 188 173 184 200 208 209 173 156 140 126 115 121 128 132 139 142 143 141 130 134 126 122 
190 193 199 202 215 208 218 203 202 191 198 200 186 181 185 183 178 150 34 2 35 19 17 14 125 127 125 125 126 126 124 124 124 124 124 124 124 125 124 124 123 123 124 123 123 127 132 129 122 124 132 140 158 174 172 202 214 202 211 195 169 189 229 247 225 209 216 221 223 229 215 242 245 204 204 219 203 146 115 137 158 174 197 204 192 157 163 182 178 170 153 142 130 137 137 135 133 131 134 128 
203 188 184 193 196 192 195 191 187 199 203 192 183 189 185 204 188 169 58 1 31 22 18 13 108 127 124 124 124 124 124 124 124 124 125 125 124 125 125 125 123 123 123 122 122 122 121 126 133 127 125 127 144 179 216 223 213 214 205 195 198 235 238 217 215 208 215 214 186 175 102 102 214 220 176 191 166 94 138 172 184 206 206 211 221 211 170 123 120 120 122 124 123 122 122 122 123 123 128 128 
211 194 196 187 191 191 188 183 205 214 205 191 184 182 183 186 186 193 71 4 23 26 16 15 79 129 123 125 125 125 125 125 125 124 124 124 125 125 125 125 123 123 123 123 123 123 123 123 121 129 130 139 160 196 220 235 229 200 197 215 236 227 217 207 199 203 197 204 192 132 16 36 103 210 208 181 139 132 149 166 190 205 211 212 209 221 185 160 140 135 134 132 132 131 130 126 125 123 123 123 
193 197 200 196 199 214 201 193 200 194 187 173 168 163 172 167 173 180 85 12 14 29 20 19 57 129 123 125 125 125 125 124 124 124 124 124 123 125 125 125 123 123 123 124 124 124 123 125 123 122 127 153 189 210 230 236 215 192 224 248 208 201 187 178 173 175 169 195 206 172 90 108 109 222 233 200 189 146 138 186 169 173 193 196 221 242 225 195 162 147 135 129 128 127 126 124 125 124 124 124 
181 196 199 192 205 198 191 196 195 193 195 190 179 179 178 181 181 177 125 17 7 31 20 11 37 134 127 125 125 125 123 123 123 124 126 123 123 124 125 124 124 125 125 125 123 124 124 125 126 135 156 188 204 211 229 215 193 199 214 185 151 175 159 154 150 161 170 202 221 219 226 239 247 239 251 251 215 205 179 158 184 197 185 173 237 231 226 203 164 135 128 124 126 125 123 123 124 124 124 124 
200 199 197 199 183 185 199 198 196 205 194 189 185 178 184 195 175 167 140 18 3 29 18 10 24 125 126 127 126 124 125 126 127 126 126 128 128 126 126 128 125 127 131 129 129 130 126 126 129 143 168 194 206 226 240 193 176 179 143 71 86 145 148 147 154 165 185 189 207 218 232 231 226 235 240 249 238 207 168 131 124 142 158 202 252 231 216 206 178 147 131 126 125 123 123 124 124 125 124 124 
202 196 195 200 196 192 198 198 195 196 187 185 176 179 190 182 163 163 152 21 4 25 19 13 19 110 127 126 126 125 128 130 131 131 133 135 132 131 135 141 136 135 142 146 136 142 142 134 147 160 189 219 209 207 197 168 154 176 109 24 9 116 150 154 160 156 163 170 180 193 210 197 210 190 196 225 236 202 157 138 122 126 160 231 250 234 210 219 207 165 134 125 124 124 125 125 126 126 127 127 
184 197 199 191 195 203 194 191 202 184 197 184 178 179 156 156 157 148 134 26 7 19 21 15 15 91 128 126 126 126 126 126 125 125 125 125 126 127 127 128 129 127 124 123 120 124 130 133 152 203 211 184 164 157 162 152 145 157 105 59 76 131 154 157 157 159 162 157 144 153 163 165 202 170 162 193 223 211 202 185 165 157 179 215 246 251 227 219 220 199 162 135 125 126 126 126 127 128 129 130 
207 205 196 210 197 203 199 207 191 184 180 181 180 155 163 138 117 118 104 38 11 16 22 18 10 73 130 126 126 126 125 125 125 125 125 126 126 126 126 127 126 132 137 137 145 135 129 136 173 205 157 147 122 114 123 159 168 185 160 135 170 162 155 153 151 169 184 177 138 137 145 136 172 180 149 170 219 223 187 157 137 136 160 193 233 250 231 197 195 206 172 141 129 128 129 130 131 131 132 134 
205 192 214 199 192 192 194 196 180 183 183 180 140 127 116 106 85 67 74 43 12 12 23 18 9 58 129 125 125 125 125 125 125 124 124 125 125 124 124 124 124 123 123 124 122 128 140 161 199 200 171 159 142 117 113 123 156 177 195 180 162 162 163 152 148 159 181 186 153 115 123 109 146 161 143 158 199 211 185 160 154 145 155 187 217 250 241 193 185 198 184 148 134 133 134 134 135 137 139 140 
189 207 198 184 209 207 194 180 172 164 159 144 109 97 87 70 64 65 60 47 8 9 24 16 11 43 121 125 125 125 124 123 123 123 122 123 123 124 122 123 123 122 122 123 126 124 133 153 179 185 173 164 134 113 107 138 175 184 179 152 154 157 164 148 133 135 139 137 137 118 111 110 126 146 143 150 176 169 153 144 138 135 149 174 209 240 251 217 196 195 194 166 145 140 141 141 142 144 146 147 
183 176 172 185 191 188 172 153 151 140 126 114 93 82 59 53 53 63 55 62 10 8 23 14 14 30 112 124 124 124 124 123 123 123 122 122 122 122 122 122 122 122 122 123 123 132 140 153 171 179 167 136 109 98 110 139 158 174 161 131 134 157 164 139 112 101 108 90 84 98 126 124 105 128 123 140 154 146 132 129 130 126 138 167 194 226 244 219 193 196 203 177 156 149 148 148 150 151 152 154 
192 188 189 190 191 189 158 133 125 117 102 93 84 64 55 58 68 56 53 60 11 9 22 16 14 22 103 123 123 123 123 123 123 123 123 123 123 122 122 122 122 122 122 122 123 126 133 153 179 176 148 130 115 94 93 119 170 190 193 163 146 160 141 119 105 81 93 73 67 72 107 108 120 120 110 125 133 125 117 116 120 121 128 154 184 212 228 201 183 186 199 192 162 155 155 155 156 157 158 160 
186 199 199 195 192 161 142 121 110 96 89 86 69 58 67 60 48 44 43 35 16 7 19 18 14 14 92 123 123 122 123 123 123 123 123 123 123 122 122 122 122 122 122 120 122 125 142 169 187 178 175 169 148 144 132 160 170 185 175 147 123 150 145 109 79 84 75 62 58 59 76 91 121 125 117 107 98 97 102 106 103 113 126 147 175 208 237 225 180 184 197 200 177 162 161 163 164 164 164 165 
193 201 193 200 196 157 107 101 97 90 91 95 86 62 63 52 50 47 45 43 28 8 17 19 14 10 80 124 124 124 124 123 123 123 124 124 124 124 124 125 125 122 127 132 135 138 164 186 173 159 154 146 137 112 104 128 149 166 178 165 146 143 147 116 87 81 62 58 49 57 55 78 114 109 97 87 86 87 95 94 99 114 122 135 162 192 221 223 192 183 186 196 183 172 171 170 171 172 172 172 
200 182 179 176 162 130 94 88 102 97 104 98 86 63 53 46 50 50 50 48 37 6 14 22 15 12 63 123 125 125 125 124 124 124 124 124 124 126 125 124 130 139 142 131 132 142 176 185 168 158 156 160 180 150 138 142 162 162 158 154 149 135 146 117 89 72 63 43 36 50 59 79 90 91 81 73 75 81 82 86 96 108 123 141 163 187 216 224 194 188 188 194 188 177 175 176 176 177 177 177 
183 188 188 191 169 135 104 94 85 91 95 90 81 58 47 51 48 50 51 42 39 8 9 25 15 13 46 120 125 125 125 124 124 124 125 125 125 126 137 140 132 128 129 129 134 160 184 186 174 151 128 143 195 177 149 155 139 166 169 144 130 136 145 127 103 83 72 60 56 59 57 77 84 93 84 72 77 74 76 81 90 108 120 131 156 178 203 220 182 174 185 193 192 180 179 181 181 181 182 183 
185 188 193 184 159 117 95 94 88 85 85 88 86 68 53 50 60 53 38 41 40 13 5 26 16 13 30 118 126 125 126 126 126 126 127 128 134 138 131 130 133 132 132 137 147 162 179 186 160 139 150 171 180 168 161 146 147 150 123 125 137 132 127 127 119 94 77 71 68 60 63 82 70 67 115 142 157 100 98 123 162 128 117 131 150 180 205 221 190 171 178 189 193 184 183 183 185 186 187 187 
184 190 189 190 160 125 96 88 89 87 89 85 74 58 48 61 55 43 50 51 39 22 4 22 16 14 10 118 126 127 128 128 129 130 136 136 134 131 132 134 135 135 136 141 149 164 178 178 164 160 145 142 173 173 162 150 125 120 127 134 108 105 115 108 115 103 90 79 65 55 62 58 51 66 88 95 99 104 76 69 69 128 119 121 141 176 201 209 179 168 178 185 199 191 187 189 190 191 191 192 
