P2 
# This is an example bitmap of the letter "J"

6 10
255
17 16 15 14 13 12 
27 26 25 24 23 22 
38 37 36 35 34 33 
49 48 47 46 45 44 
59 58 57 56 55 54 
69 68 67 66 65 64 
79 78 77 76 75 74 
89 88 87 86 85 84 
99 98 97 96 95 94 
109 108 107 106 105 104 
