P2 
# This is an example bitmap of the letter "J"
4 3
45
13 14 15 16 
23 24 25 26 
34 35 36 37 
