P2 
# This is an example bitmap of the letter "J"
6 10
255
104 105 106 107 108 109 
94 95 96 97 98 99 
84 85 86 87 88 89 
74 75 76 77 78 79 
64 65 66 67 68 69 
54 55 56 57 58 59 
44 45 46 47 48 49 
33 34 35 36 37 38 
22 23 24 25 26 27 
12 13 14 15 16 17 
